HIERARCHY
ROOT __0
{
	OFFSET 0.0 0.0 0.0
	CHANNELS 0
	JOINT torso_base_link
	{
		OFFSET 0.000000 0.000000 0.000000
		CHANNELS 6 Xposition Yposition Zposition Zrotation Xrotation Yrotation
		JOINT torso_link_b1
		{
			OFFSET 0.925000 0.000000 8.835000
			CHANNELS 6 Xposition Yposition Zposition Zrotation Xrotation Yrotation
			JOINT tail_lb1
			{
				OFFSET 0.000000 0.000000 3.221000
				CHANNELS 3 Zrotation Xrotation Yrotation
				JOINT arm_left_link_1_s
				{
					OFFSET 1.000000 0.000000 0.000000
					CHANNELS 3 Zrotation Xrotation Yrotation
					JOINT arm_left_link_2_l
					{
						OFFSET 0.000297 2.530458 0.000400
						CHANNELS 3 Zrotation Xrotation Yrotation
						JOINT tail_left_link_2_l
						{
							OFFSET 0.000000 0.000000 -2.000400
							CHANNELS 3 Zrotation Xrotation Yrotation
							JOINT arm_left_link_3_e
							{
								OFFSET -0.000297 1.690000 2.000000
								CHANNELS 3 Zrotation Xrotation Yrotation
								JOINT arm_left_link_4_u
								{
									OFFSET 0.000000 1.809932 0.000000
									CHANNELS 3 Zrotation Xrotation Yrotation
									JOINT tail_l4u
									{
										OFFSET 0.000297 0.000000 2.035159
										CHANNELS 3 Zrotation Xrotation Yrotation
										JOINT arm_left_link_5_r
										{
											OFFSET 0.000000 4.485610 -2.035159
											CHANNELS 3 Zrotation Xrotation Yrotation
											JOINT arm_left_link_6_b
											{
												OFFSET -0.000297 -0.999547 0.000000
												CHANNELS 3 Zrotation Xrotation Yrotation
												JOINT tail_l6b
												{
													OFFSET 0.000296 0.000000 1.944000
													CHANNELS 3 Zrotation Xrotation Yrotation
													JOINT arm_left_link_7_t
													{
														OFFSET -0.000296 2.679547 -1.944000
														CHANNELS 3 Zrotation Xrotation Yrotation
														JOINT arm_left_tool
														{
															OFFSET 0.000300 -0.500000 0.000000
															CHANNELS 6 Xposition Yposition Zposition Zrotation Xrotation Yrotation
															JOINT hand_left_1
															{
																OFFSET 0.000000 -0.500000 0.000000
																CHANNELS 6 Xposition Yposition Zposition Zrotation Xrotation Yrotation
																End Site
																{
																	OFFSET 0.999704 0.000000 0.000100
																}
															}
															JOINT hand_left_2
															{
																OFFSET 0.000000 -0.500000 0.000000
																CHANNELS 6 Xposition Yposition Zposition Zrotation Xrotation Yrotation
																End Site
																{
																	OFFSET -1.000295 0.000000 0.000080
																}
															}
														}
													}
												}
											}
										}
									}
								}
							}
						}
					}
				}
			}
			JOINT tail_right_link_1_s
			{
				OFFSET 0.000000 0.000000 3.221000
				CHANNELS 3 Zrotation Xrotation Yrotation
				JOINT arm_right_link_1_s
				{
					OFFSET 1.000000 -3.829999 0.000000
					CHANNELS 3 Zrotation Xrotation Yrotation
					JOINT arm_right_link_2_l
					{
						OFFSET 0.000000 1.299544 0.004000
						CHANNELS 3 Zrotation Xrotation Yrotation
						JOINT tail_r2l
						{
							OFFSET 0.000000 0.000000 2.000001
							CHANNELS 3 Zrotation Xrotation Yrotation
							JOINT arm_right_link_3_e
							{
								OFFSET 0.000000 -4.499545 -2.004001
								CHANNELS 3 Zrotation Xrotation Yrotation
								JOINT arm_right_link_4_u
								{
									OFFSET 0.000000 0.999618 0.000000
									CHANNELS 3 Zrotation Xrotation Yrotation
									JOINT tailr4u
									{
										OFFSET 0.000000 0.000000 -1.829300
										CHANNELS 3 Zrotation Xrotation Yrotation
										JOINT arm_right_link_5_r
										{
											OFFSET 0.000000 -1.935997 1.829300
											CHANNELS 3 Zrotation Xrotation Yrotation
											JOINT arm_right_link_6_b
											{
												OFFSET 0.000000 -1.550063 0.000000
												CHANNELS 3 Zrotation Xrotation Yrotation
												JOINT tail_r6b
												{
													OFFSET 0.000000 0.000000 -2.056000
													CHANNELS 3 Zrotation Xrotation Yrotation
													JOINT arm_right_link_7_t
													{
														OFFSET 0.000000 -0.679957 2.056000
														CHANNELS 3 Xrotation Yrotation Zrotation
														JOINT arm_right_tool
														{
															OFFSET 0.000000 -1.499600 0.000000
															CHANNELS 6 Xposition Yposition Zposition Zrotation Xrotation Yrotation
															JOINT hand_right_1
															{
																OFFSET 0.000000 0.500000 0.000000
																CHANNELS 6 Xposition Yposition Zposition Zrotation Xrotation Yrotation
																End Site
																{
																	OFFSET 1.000311 0.000035 0.000072
																}
															}
															JOINT hand_right_2
															{
																OFFSET 0.000000 0.500000 0.000000
																CHANNELS 6 Xposition Yposition Zposition Zrotation Xrotation Yrotation
																End Site
																{
																	OFFSET -0.999690 0.000000 0.000072
																}
															}
														}
													}
												}
											}
										}
									}
								}
							}
						}
					}
				}
			}
		}
	}
	JOINT lefttarget
	{
		OFFSET 1.925296 11.696000 12.056000
		CHANNELS 6 Xposition Yposition Zposition Zrotation Xrotation Yrotation
		End Site
		{
			OFFSET 0.000000 1.000000 0.000000
		}
	}
	JOINT right_target
	{
		OFFSET 1.925000 -11.696000 12.056000
		CHANNELS 6 Xposition Yposition Zposition Zrotation Xrotation Yrotation
		End Site
		{
			OFFSET 0.000000 -1.000000 0.000000
		}
	}
}
MOTION
Frames: 4
Frame Time: 0.041667
0.000000 0.000000 0.000000 -0.000000 0.000000 -0.000000 0.925000 -0.000000 8.835000 -0.000000 -0.000018 0.000005 -0.000000 0.000000 -0.000000 0.017104 0.018138 97.656979 -87.897739 0.000446 0.009235 -0.000000 -0.000003 0.000000 -0.000022 0.000018 -95.722970 -130.467582 0.000123 -0.008074 -0.000000 0.000002 0.000000 0.008638 0.000012 0.003335 -56.540053 2.901397 178.075203 -0.000000 0.000002 -0.000000 -0.007541 -0.017137 93.840891 0.000300 -0.500001 0.000000 0.000000 0.000000 -0.000001 0.000000 -0.499997 -0.000001 -0.000000 0.000000 -0.000001 0.000000 -0.499996 0.000001 -0.000000 0.000000 -0.000001 -0.000000 -0.000000 0.000000 0.189870 0.010537 97.700003 87.890922 0.006483 -0.176338 -0.000000 -0.000000 -0.000000 -0.000018 -0.000007 -95.723018 130.480929 -0.000025 0.000018 -0.000001 -0.000003 -0.000000 0.018167 0.299452 -3.482034 56.563132 -0.165291 -179.747384 -0.000000 0.000002 0.000000 -0.001923 -86.162577 0.181701 0.000000 -1.499599 0.000000 0.000000 -0.000000 -0.000000 -0.000000 0.500000 -0.000000 0.000000 -0.000000 0.000000 0.000001 0.500004 -0.000000 0.000000 0.000001 -0.000001 4.394640 2.848738 12.679745 48.404099 89.937233 41.536375 4.513629 -2.865275 12.679780 -0.000000 -89.999996 89.999996 
0.000000 0.000000 0.000000 -0.000000 0.000000 -0.000000 0.925000 -0.000000 8.835000 0.000856 0.000003 0.000005 0.000000 0.000000 -0.000000 0.016988 0.020518 97.664458 -87.906611 0.003104 0.008969 -0.000000 -0.000001 -0.000000 -0.002574 0.006887 -95.723892 -130.340432 0.000453 -0.007968 0.000002 -0.000000 -0.000000 0.008601 0.001608 -0.478476 -56.930422 2.920602 178.103849 0.000000 0.000002 -0.000000 0.105882 0.186233 93.879953 0.000300 -0.500000 0.000000 0.000000 0.000000 -0.000000 -0.000000 -0.499998 -0.000001 0.000000 -0.000000 0.000000 -0.000000 -0.499999 0.000001 -0.000000 0.000003 -0.000000 -0.000000 -0.000000 0.000000 0.188325 0.018582 97.699524 87.886653 0.006466 -0.176278 -0.000000 -0.000002 0.000000 0.001838 0.001550 -95.735326 130.499520 0.000034 -0.000045 0.000003 0.000002 -0.000000 0.018870 0.298061 -3.606174 56.543687 -0.165251 -179.744501 -0.000000 0.000000 0.000000 -0.002698 -86.053519 0.179468 0.000000 -1.499599 0.000001 0.000000 -0.000000 -0.000001 0.000000 0.499998 -0.000001 -0.000000 0.000000 0.000000 0.000000 0.500000 -0.000002 0.000000 -0.000001 -0.000001 4.392957 2.858274 12.679627 48.312776 89.748255 41.448508 4.513175 -2.868857 12.680028 66.075407 -89.941700 156.115011 
0.000000 0.000000 0.000000 -0.000000 0.000000 -0.000000 0.925000 0.000000 8.835000 0.000781 0.000003 0.000005 0.000000 0.000000 -0.000000 0.015838 0.051008 97.634931 -87.934505 0.042352 0.005848 0.000000 -0.000003 0.000000 -0.005724 0.081170 -95.750496 -129.885746 0.000442 -0.007924 -0.000001 0.000002 -0.000001 0.008505 0.011033 -0.977715 -57.849783 2.962860 178.169596 -0.000000 -0.000004 -0.000000 0.009395 0.478963 93.713542 0.000300 -0.500001 -0.000000 -0.000000 0.000000 0.000001 0.000000 -0.499999 -0.000002 -0.000000 -0.000000 0.000000 0.000000 -0.500000 -0.000002 -0.000000 -0.000000 0.000001 -0.000000 -0.000000 0.000000 0.183345 0.053263 97.720944 87.874202 0.006494 -0.176220 0.000000 -0.000002 0.000000 0.005282 0.013771 -95.854383 130.586359 0.000011 -0.000071 -0.000003 0.000002 -0.000000 0.020391 0.294414 -3.866781 56.400492 -0.160856 -179.733655 -0.000000 0.000000 -0.000000 -0.004711 -85.879554 0.175812 -0.000000 -1.499599 -0.000002 -0.000000 -0.000000 -0.000002 -0.000001 0.499999 -0.000002 0.000000 -0.000000 -0.000001 0.000001 0.499999 -0.000001 0.000001 0.000001 -0.000001 4.390141 2.874223 12.679435 48.163110 89.432257 41.298520 4.511807 -2.879640 12.680776 66.019352 -89.766212 156.178190 
0.000000 0.000000 0.000000 -0.000000 0.000000 -0.000000 0.925000 -0.000000 8.835000 0.001560 0.000003 0.000005 -0.000000 0.000000 -0.000000 0.015527 0.074508 97.461930 -87.961567 0.041539 0.004993 0.000000 -0.000005 0.000000 -0.014467 0.071841 -95.985605 -129.772583 0.000370 -0.007841 0.000001 -0.000000 0.000000 0.008635 0.021179 -1.542341 -58.121133 2.989043 178.211397 -0.000000 -0.000004 -0.000000 -0.000376 0.637180 93.221816 0.000300 -0.500001 0.000000 0.000000 -0.000000 -0.000000 0.000000 -0.500001 -0.000002 0.000000 -0.000000 -0.000000 0.000000 -0.500002 0.000001 0.000000 -0.000002 -0.000000 -0.000000 -0.000000 0.000000 0.178218 0.090754 97.765641 87.883149 0.006468 -0.176241 -0.000000 -0.000002 -0.000000 0.013456 0.025343 -96.163866 130.695629 -0.000031 -0.000160 -0.000001 -0.000005 -0.000000 0.021876 0.284976 -4.111893 56.183473 -0.149112 -179.717508 0.000000 0.000000 0.000000 -0.006467 -85.843887 0.171783 -0.000001 -1.499599 -0.000002 0.000000 0.000000 0.000001 -0.000000 0.499999 -0.000000 -0.000000 0.000000 0.000003 -0.000001 0.500001 -0.000002 -0.000000 0.000002 0.000002 4.386186 2.896616 12.679162 47.953177 88.988574 41.087689 4.509521 -2.897672 12.682026 65.920649 -89.472739 156.278908 
